<?xml version="1.0" standalone="no"?>
<!DOCTYPE svg PUBLIC "-//W3C//DTD SVG 20010904//EN"
 "http://www.w3.org/TR/2001/REC-SVG-20010904/DTD/svg10.dtd">
<svg version="1.0" xmlns="http://www.w3.org/2000/svg"
 width="1536.000000pt" height="1408.000000pt" viewBox="0 0 1536.000000 1408.000000"
 preserveAspectRatio="xMidYMid meet">
<metadata>
Created by potrace 1.15, written by Peter Selinger 2001-2017
</metadata>
<g transform="translate(0.000000,1408.000000) scale(0.100000,-0.100000)"
fill="#000000" stroke="none">
<path d="M4939 12806 c-63 -17 -132 -59 -184 -112 -47 -48 -78 -109 -240 -459
-54 -115 -116 -248 -138 -295 -61 -131 -77 -169 -69 -174 4 -2 144 -68 312
-146 168 -79 343 -161 390 -182 139 -66 252 -118 405 -188 33 -15 107 -50 165
-77 58 -28 120 -56 138 -64 40 -17 40 -33 1 -117 -17 -37 -62 -134 -100 -215
-38 -82 -87 -188 -110 -235 -23 -48 -52 -109 -64 -137 -13 -27 -48 -103 -79
-169 -31 -65 -56 -120 -56 -122 0 -3 -57 -128 -117 -254 -25 -52 -62 -133 -83
-180 -21 -47 -61 -134 -90 -195 -29 -60 -63 -135 -77 -165 -26 -56 -58 -126
-133 -285 -23 -49 -48 -103 -55 -120 -8 -16 -49 -106 -93 -200 -44 -93 -89
-190 -100 -215 -11 -25 -39 -85 -62 -135 -43 -91 -93 -199 -135 -290 -13 -27
-46 -99 -73 -160 -28 -60 -69 -150 -92 -200 -47 -101 -154 -332 -193 -415 -14
-30 -48 -104 -76 -163 -28 -60 -51 -110 -51 -112 0 -2 -29 -65 -65 -140 -36
-75 -65 -138 -65 -139 0 -5 -106 -231 -136 -290 -14 -27 -21 -53 -16 -58 11
-11 174 -89 178 -85 5 5 118 243 167 352 25 55 72 158 106 229 34 70 61 130
61 132 0 2 27 60 60 129 33 69 60 127 60 130 0 2 29 65 65 140 36 76 65 138
65 140 0 3 139 302 206 443 24 51 44 94 44 96 0 2 25 57 56 122 31 66 73 157
94 204 21 47 60 132 88 190 27 58 63 134 79 170 17 36 60 128 96 205 35 77 76
165 90 195 14 30 48 105 77 165 29 61 69 148 90 195 21 47 61 135 90 195 28
61 58 124 65 140 8 17 48 104 90 195 43 91 88 190 102 220 46 103 52 115 122
263 39 81 71 150 71 152 0 2 29 65 65 140 36 76 65 139 65 141 0 1 19 42 42
90 28 60 38 91 32 101 -5 8 -44 30 -86 48 -42 19 -134 62 -205 95 -70 34 -180
86 -243 115 -153 70 -213 98 -420 195 -96 45 -202 95 -235 110 -210 98 -255
119 -255 123 0 7 47 109 109 240 28 59 51 109 51 111 0 16 146 306 163 324 35
38 92 62 146 62 42 0 82 -15 243 -89 271 -125 413 -191 598 -278 52 -25 118
-56 146 -68 60 -28 121 -94 130 -143 9 -49 -2 -125 -25 -171 -12 -22 -21 -46
-21 -54 0 -13 144 -87 169 -87 13 0 58 87 77 149 18 59 18 163 0 222 -49 161
-123 224 -405 349 -47 21 -124 56 -171 78 -159 75 -302 142 -305 142 -1 0 -65
30 -141 66 -77 37 -161 73 -189 80 -61 17 -155 17 -216 0z"/>
<path d="M4007 11143 c-25 -54 -61 -132 -80 -173 -19 -41 -56 -120 -82 -175
-26 -55 -63 -134 -82 -175 -19 -41 -69 -146 -109 -233 -41 -86 -85 -181 -98
-210 -13 -28 -46 -100 -74 -158 -28 -59 -71 -151 -96 -205 -24 -55 -78 -170
-120 -258 -42 -87 -76 -160 -76 -162 0 -2 -38 -83 -84 -181 -46 -98 -93 -200
-106 -228 -12 -27 -47 -102 -78 -165 -30 -63 -67 -142 -82 -175 -33 -71 -83
-178 -156 -334 -30 -62 -54 -114 -54 -116 0 -2 -29 -64 -65 -140 -36 -75 -65
-138 -65 -140 0 -2 -29 -65 -65 -140 -36 -75 -65 -138 -65 -140 0 -2 -25 -56
-56 -121 -31 -66 -69 -146 -84 -179 -49 -106 -107 -231 -288 -615 -60 -129
-156 -334 -212 -455 -56 -121 -125 -268 -152 -327 l-51 -108 38 -102 c20 -57
59 -164 86 -238 295 -813 315 -865 333 -868 10 -2 75 17 144 43 70 26 157 58
194 71 114 40 211 76 243 89 17 7 158 59 315 115 157 57 292 106 300 111 9 4
58 99 110 211 51 112 122 263 157 337 85 180 84 172 26 195 -26 11 -97 43
-158 72 -60 28 -126 59 -146 67 -60 27 -161 73 -234 107 -110 50 -287 131
-323 146 l-33 15 -40 -88 c-22 -47 -38 -91 -36 -97 3 -6 49 -31 103 -56 55
-24 155 -70 223 -102 68 -32 125 -58 126 -58 2 0 32 -13 67 -29 35 -16 98 -45
141 -64 42 -20 77 -40 77 -45 0 -8 -48 -114 -165 -368 -32 -69 -35 -72 -92
-93 -32 -13 -69 -27 -82 -32 -23 -9 -158 -58 -361 -131 -47 -16 -163 -59 -259
-95 -109 -41 -177 -61 -183 -55 -13 13 -338 909 -338 932 0 10 29 80 65 155
36 75 65 138 65 140 0 2 31 69 70 150 38 81 70 148 70 150 0 1 27 61 61 131
34 71 76 161 94 199 43 92 161 345 220 470 26 55 58 125 72 155 36 81 61 134
110 240 25 52 89 190 143 305 54 116 117 251 140 300 23 50 52 113 65 140 13
28 46 99 74 159 28 59 51 110 51 112 0 2 25 54 55 116 31 61 73 150 94 197 22
48 60 131 86 186 26 55 78 165 115 245 37 80 91 194 119 254 28 59 51 110 51
111 0 2 29 65 65 140 36 75 65 138 65 140 0 1 25 56 56 121 31 66 69 146 84
179 41 89 110 234 179 378 33 70 61 129 61 131 0 2 25 57 56 122 69 145 95
206 92 209 -7 6 -172 85 -178 85 -4 0 -27 -44 -53 -97z"/>
<path d="M6372 10258 l3 -103 2670 -5 c2560 -5 2672 -6 2724 -23 215 -73 363
-201 450 -389 76 -162 72 -5 69 -2263 l-3 -2020 -4125 -5 -4125 -5 0 -100 0
-100 4230 0 4230 0 0 2165 0 2165 -23 85 c-91 329 -319 564 -649 667 l-88 28
-2683 3 -2683 2 3 -102z"/>
<path d="M4551 10328 c-8 -22 -33 -75 -130 -280 -64 -138 -122 -260 -143 -308
-11 -25 -54 -117 -96 -205 -41 -88 -101 -216 -132 -285 -32 -69 -83 -178 -114
-243 -31 -65 -56 -120 -56 -122 0 -2 -31 -68 -69 -147 -38 -79 -113 -237 -166
-353 -54 -115 -115 -248 -137 -295 -22 -47 -56 -119 -75 -160 -19 -41 -55
-117 -79 -169 -25 -52 -43 -99 -42 -103 5 -13 171 -88 181 -81 5 3 24 38 42
77 35 76 79 170 156 334 27 57 49 105 49 107 0 1 30 65 66 140 36 76 87 186
114 244 26 58 73 158 103 221 30 63 66 140 80 170 14 30 45 98 70 150 24 52
69 149 100 215 87 188 155 335 317 680 33 70 66 142 139 300 11 22 17 43 14
48 -6 10 -159 87 -173 87 -6 0 -14 -10 -19 -22z"/>
<path d="M6408 8488 c17 -17 17 -1379 0 -1396 -9 -9 24 -12 152 -12 128 0 161
3 152 12 -17 17 -17 1379 0 1396 9 9 -24 12 -152 12 -128 0 -161 -3 -152 -12z"/>
<path d="M8443 8478 c8 -13 101 -332 208 -710 l193 -688 70 0 71 0 57 223 c37
146 51 214 40 198 -50 -73 -35 -109 -191 446 -79 279 -147 518 -152 531 -8 21
-12 22 -159 22 l-150 0 13 -22z"/>
<path d="M9321 8378 l-31 -123 0 -575 c0 -435 -3 -579 -12 -588 -9 -9 22 -12
143 -12 l154 0 0 710 0 710 -111 0 -111 0 -32 -122z"/>
<path d="M7290 7433 c0 -35 -60 -144 -106 -193 -53 -57 -121 -103 -202 -136
l-57 -24 188 0 187 0 0 185 c0 102 -2 185 -5 185 -3 0 -5 -8 -5 -17z"/>
<path d="M7745 7348 c-125 -69 -96 -248 43 -265 107 -13 186 109 134 206 -32
59 -122 89 -177 59z"/>
<path d="M10023 7340 c-89 -54 -82 -200 11 -244 45 -21 79 -20 124 3 47 24 72
67 72 123 0 109 -115 175 -207 118z"/>
<path d="M8446 7285 c-24 -81 -47 -123 -92 -167 l-37 -38 137 0 138 0 -31 35
c-41 47 -69 103 -85 173 l-13 57 -17 -60z"/>
<path d="M12297 4654 c-4 -4 -7 -47 -7 -95 0 -360 -207 -632 -552 -726 -58
-16 -192 -18 -1640 -23 l-1578 -5 450 -675 450 -675 -2 -140 -3 -140 -1525 0
-1525 0 -3 138 -3 139 448 671 c246 369 450 674 451 679 2 4 -695 8 -1550 8
-1494 0 -1556 1 -1640 20 -158 35 -283 103 -382 210 -89 97 -161 239 -181 358
-4 23 -12 42 -18 42 -34 0 -183 -24 -191 -31 -18 -16 48 -229 103 -329 100
-184 287 -343 493 -420 140 -52 79 -50 1571 -50 1190 0 1388 -2 1393 -14 3 -8
-143 -237 -350 -548 l-356 -533 0 -273 0 -272 1740 0 1740 0 0 274 0 273 -355
534 c-196 293 -353 539 -351 546 4 11 264 13 1393 13 1492 0 1431 -2 1571 50
285 107 490 328 577 626 22 75 27 111 28 229 l2 140 -95 3 c-53 1 -99 0 -103
-4z"/>
</g>
</svg>
